HIERARCHY
ROOT Hips
{
	OFFSET 0.000000 0.000000 0.000000
	CHANNELS 6 Xposition Yposition Zposition Zrotation Yrotation Xrotation 
	JOINT LHipJoint
	{
		OFFSET 0.000000 0.000000 0.000000
		CHANNELS 3 Zrotation Yrotation Xrotation
		JOINT LeftUpLeg
		{
			OFFSET 1.363060 -1.794630 0.839290
			CHANNELS 3 Zrotation Yrotation Xrotation
			JOINT LeftLeg
			{
				OFFSET 2.448110 -6.726130 0.000000
				CHANNELS 3 Zrotation Yrotation Xrotation
				JOINT LeftFoot
				{
					OFFSET 2.562200 -7.039590 0.000000
					CHANNELS 3 Zrotation Yrotation Xrotation
					JOINT LeftToeBase
					{
						OFFSET 0.157640 -0.433110 2.322550
						CHANNELS 3 Zrotation Yrotation Xrotation
						End Site
						{
							OFFSET 0.000000 0.000000 0.000000
						}
					}
				}
			}
		}
	}
	JOINT RHipJoint
	{
		OFFSET 0.000000 0.000000 0.000000
		CHANNELS 3 Zrotation Yrotation Xrotation
		JOINT RightUpLeg
		{
			OFFSET -1.305520 -1.794630 0.839290
			CHANNELS 3 Zrotation Yrotation Xrotation
			JOINT RightLeg
			{
				OFFSET -2.542530 -6.985550 0.000000
				CHANNELS 3 Zrotation Yrotation Xrotation
				JOINT RightFoot
				{
					OFFSET -2.568260 -7.056230 0.000000
					CHANNELS 3 Zrotation Yrotation Xrotation
					JOINT RightToeBase
					{
						OFFSET -0.164730 -0.452590 2.363150
						CHANNELS 3 Zrotation Yrotation Xrotation
						End Site
						{
							OFFSET 0.000000 0.000000 0.000000
						}
					}
				}
			}
		}
	}
	JOINT LowerBack
	{
		OFFSET 0.000000 0.000000 0.000000
		CHANNELS 3 Zrotation Yrotation Xrotation
		JOINT Spine
		{
			OFFSET 0.028270 2.035590 -0.193380
			CHANNELS 3 Zrotation Yrotation Xrotation
			JOINT Spine1
			{
				OFFSET 0.056720 2.048850 -0.042750
				CHANNELS 3 Zrotation Yrotation Xrotation
				JOINT Neck
				{
					OFFSET 0.000000 0.000000 0.000000
					CHANNELS 3 Zrotation Yrotation Xrotation
					JOINT Neck1
					{
						OFFSET -0.054170 1.746240 0.172020
						CHANNELS 3 Zrotation Yrotation Xrotation
						JOINT Head
						{
							OFFSET 0.104070 1.761360 -0.123970
							CHANNELS 3 Zrotation Yrotation Xrotation
							End Site
							{
								OFFSET 0.000000 0.000000 0.000000
							}
						}
					}
				}
				JOINT LeftShoulder
				{
					OFFSET 0.000000 0.000000 0.000000
					CHANNELS 3 Zrotation Yrotation Xrotation
					JOINT LeftArm
					{
						OFFSET 3.362410 1.200890 -0.311210
						CHANNELS 3 Zrotation Yrotation Xrotation
						JOINT LeftForeArm
						{
							OFFSET 4.983000 -0.000000 -0.000000
							CHANNELS 3 Zrotation Yrotation Xrotation
							JOINT LeftHand
							{
								OFFSET 3.483560 -0.000000 -0.000000
								CHANNELS 3 Zrotation Yrotation Xrotation
								JOINT LeftFingerBase
								{
									OFFSET 0.000000 0.000000 0.000000
									CHANNELS 3 Zrotation Yrotation Xrotation
									JOINT LeftHandIndex1
									{
										OFFSET 0.715260 -0.000000 -0.000000
										CHANNELS 3 Zrotation Yrotation Xrotation
										End Site
										{
											OFFSET 0.000000 0.000000 0.000000
										}
									}
								}
								JOINT LThumb
								{
									OFFSET 0.000000 0.000000 0.000000
									CHANNELS 3 Zrotation Yrotation Xrotation
									End Site
									{
										OFFSET 0.000000 0.000000 0.000000
									}
								}
							}
						}
					}
				}
				JOINT RightShoulder
				{
					OFFSET 0.000000 0.000000 0.000000
					CHANNELS 3 Zrotation Yrotation Xrotation
					JOINT RightArm
					{
						OFFSET -3.136600 1.374050 -0.404650
						CHANNELS 3 Zrotation Yrotation Xrotation
						JOINT RightForeArm
						{
							OFFSET -5.241900 -0.000000 -0.000000
							CHANNELS 3 Zrotation Yrotation Xrotation
							JOINT RightHand
							{
								OFFSET -3.444170 -0.000000 -0.000000
								CHANNELS 3 Zrotation Yrotation Xrotation
								JOINT RightFingerBase
								{
									OFFSET 0.000000 0.000000 0.000000
									CHANNELS 3 Zrotation Yrotation Xrotation
									JOINT RightHandIndex1
									{
										OFFSET -0.622530 -0.000000 -0.000000
										CHANNELS 3 Zrotation Yrotation Xrotation
										End Site
										{
											OFFSET 0.000000 0.000000 0.000000
										}
									}
								}
								JOINT RThumb
								{
									OFFSET 0.000000 0.000000 0.000000
									CHANNELS 3 Zrotation Yrotation Xrotation
									End Site
									{
										OFFSET 0.000000 0.000000 0.000000
									}
								}
							}
						}
					}
				}
			}
		}
	}
}
MOTION
Frames: 4
Frame Time: 0.008333
7.465989 18.257528 -8.923836 -2.800230 -9.753801 3.150499 -8.714433 -0.990640 0.879264 0.320322 -4.582368 -26.450466 0.320135 7.822343 20.804606 -3.862615 14.616834 9.777662 0.808500 -5.738400 -16.027200 6.809891 -0.992743 4.189773 19.807212 7.197720 -0.543414 0.221855 -5.121913 16.229381 0.495660 -3.522902 -2.085205 -0.915900 -6.097700 17.068200 1.643503 -0.441287 -1.683725 0.933225 -0.788613 -3.562266 -4.836183 -0.384467 -1.899094 -3.009528 -2.479959 -12.557328 1.778698 -3.190284 7.816359 0.262300 -1.667500 5.919800 -3.370211 -2.496423 0.288486 -70.349936 8.565212 3.446954 10.663578 -13.302232 -1.387379 -1.714153 -1.242208 9.768293 18.565667 12.072897 4.889100 -7.125000 0.000000 0.000000 -6.767600 44.269000 0.122700 -0.307316 2.701463 -0.273052 7.813446 39.759535 -54.247880 -101.995773 59.989238 -73.787028 1.433104 -1.095178 7.058441 -48.568615 41.539448 -38.341900 7.125000 0.000000 0.000000 -6.381100 23.711200 -8.446000 
7.452030 18.254314 -8.797896 -2.869764 -10.155004 3.283937 -8.771303 -0.974962 0.796087 0.886241 -5.343405 -26.153830 0.186978 7.489680 19.742440 -4.095080 15.364674 10.324041 1.070300 -6.576600 -18.466800 6.818627 -1.039023 4.295476 19.879175 6.632893 0.009175 0.319439 -4.831815 15.359724 0.566119 -3.809558 -1.767917 -0.269600 -3.340200 9.227400 1.474753 -0.542609 -1.851446 0.908732 -0.939766 -3.542057 -4.804964 -0.451059 -1.761175 -2.607710 -2.312538 -12.831529 1.645818 -3.024507 7.846611 0.150100 -1.578100 5.972900 -3.376130 -2.492847 0.331465 -70.124156 8.824925 0.516485 10.267594 -12.820644 -1.270446 -1.780652 -1.077234 11.794975 18.964763 11.512071 4.767900 -7.125000 0.000000 0.000000 -6.237600 43.627600 0.212100 -0.319704 2.695180 -0.346051 8.209533 42.414707 -53.548582 -101.803281 59.956412 -73.611144 1.425892 -1.096916 7.749861 -47.751313 40.944704 -37.227000 7.125000 0.000000 0.000000 -6.235000 22.715100 -8.194600 
7.430839 18.264257 -8.671354 -3.070983 -10.712232 3.467364 -8.771537 -0.952959 0.715866 1.568649 -5.986984 -25.904256 0.099664 7.243862 18.919720 -4.305673 16.003529 10.627192 1.221400 -7.009900 -19.744600 6.818300 -1.093437 4.369466 20.057685 6.488265 0.707625 0.431257 -4.486725 14.348544 0.565941 -3.802938 -1.181456 -0.524100 -4.639600 12.883400 1.459751 -0.800406 -2.099385 0.849897 -1.293114 -3.352384 -4.945033 -0.619873 -1.165809 -1.949299 -1.882886 -14.057700 1.651820 -2.534886 8.071140 0.065800 -1.305200 6.289100 -3.378614 -2.531789 0.404476 -69.629609 8.757791 -2.451020 9.919039 -12.425335 -1.170451 -1.800233 -1.124636 12.782890 18.469715 12.403081 4.977600 -7.125000 0.000000 0.000000 -6.892500 44.579100 0.072000 -0.355756 2.724928 -0.441777 8.411451 45.967708 -53.555631 -101.506334 59.925823 -73.362451 1.413888 -1.097103 8.436806 -46.052963 40.372148 -35.301000 7.125000 0.000000 0.000000 -5.641700 21.319500 -7.333700 
7.410954 18.276208 -8.553449 -3.211523 -11.212537 3.515692 -8.789998 -0.912141 0.638944 2.269936 -6.903711 -25.552691 0.035465 7.036217 18.225704 -4.567377 16.710855 10.701825 1.222900 -7.014000 -19.756800 6.807669 -1.156364 4.444872 20.198101 6.475680 1.521262 0.525722 -4.178869 13.437454 0.586497 -3.891972 -0.690073 -0.275600 -3.376800 9.329700 1.407099 -0.142461 -2.271158 0.971260 -0.432880 -3.428456 -4.526489 -0.177511 -1.439874 -3.685867 -2.590769 -12.371194 2.147193 -3.223340 7.530362 0.567000 -1.689800 5.778100 -3.452271 -2.491582 0.436951 -69.799737 8.700880 -3.827731 9.291388 -11.483394 -0.995604 -1.850801 -0.941533 15.997024 18.336967 12.126600 4.820100 -7.125000 0.000000 0.000000 -6.928700 44.189800 0.139200 -0.336793 2.715614 -0.446884 8.499506 46.526755 -52.405872 -100.543161 59.952692 -72.630314 1.415439 -1.053342 9.031714 -44.390489 39.092709 -33.045700 7.125000 0.000000 0.000000 -5.318900 19.211600 -6.796100 
